<mxfile host="app.diagrams.net" modified="2023-02-10T07:45:53.177Z" agent="5.0 (Windows NT 10.0; Win64; x64) AppleWebKit/537.36 (KHTML, like Gecko) Chrome/109.0.0.0 Safari/537.36" etag="xuHjF8wkGpul0uYmaFm5" version="20.8.18" type="github">
  <diagram name="第 1 页" id="akbQyyXmOrQS5sQ6JPV9">
    <mxGraphModel dx="2312" dy="912" grid="1" gridSize="10" guides="1" tooltips="1" connect="1" arrows="1" fold="1" page="1" pageScale="1" pageWidth="827" pageHeight="1169" math="0" shadow="0">
      <root>
        <mxCell id="0" />
        <mxCell id="1" parent="0" />
        <mxCell id="pqZoWG4YYdNr_2q8qkuw-1" value="APP" style="rounded=1;whiteSpace=wrap;html=1;fillColor=none;" vertex="1" parent="1">
          <mxGeometry x="150" y="120" width="80" height="40" as="geometry" />
        </mxCell>
        <mxCell id="pqZoWG4YYdNr_2q8qkuw-2" value="WEB" style="rounded=1;whiteSpace=wrap;html=1;fillColor=none;" vertex="1" parent="1">
          <mxGeometry x="290" y="120" width="90" height="40" as="geometry" />
        </mxCell>
        <mxCell id="pqZoWG4YYdNr_2q8qkuw-3" value="小程序" style="rounded=1;whiteSpace=wrap;html=1;fillColor=none;" vertex="1" parent="1">
          <mxGeometry x="440" y="120" width="90" height="40" as="geometry" />
        </mxCell>
        <mxCell id="pqZoWG4YYdNr_2q8qkuw-4" value="ROOMS" style="rounded=1;whiteSpace=wrap;html=1;fillColor=none;" vertex="1" parent="1">
          <mxGeometry x="590" y="120" width="90" height="40" as="geometry" />
        </mxCell>
        <mxCell id="pqZoWG4YYdNr_2q8qkuw-5" value="conn天津" style="rounded=0;whiteSpace=wrap;html=1;fillColor=none;" vertex="1" parent="1">
          <mxGeometry x="150" y="230" width="80" height="40" as="geometry" />
        </mxCell>
        <mxCell id="pqZoWG4YYdNr_2q8qkuw-6" value="conn上海" style="rounded=0;whiteSpace=wrap;html=1;fillColor=none;" vertex="1" parent="1">
          <mxGeometry x="295" y="230" width="80" height="40" as="geometry" />
        </mxCell>
        <mxCell id="pqZoWG4YYdNr_2q8qkuw-7" value="conn广州" style="rounded=0;whiteSpace=wrap;html=1;fillColor=none;" vertex="1" parent="1">
          <mxGeometry x="445" y="230" width="80" height="40" as="geometry" />
        </mxCell>
        <mxCell id="pqZoWG4YYdNr_2q8qkuw-8" value="conn广州" style="rounded=0;whiteSpace=wrap;html=1;fillColor=none;" vertex="1" parent="1">
          <mxGeometry x="595" y="230" width="80" height="40" as="geometry" />
        </mxCell>
        <mxCell id="pqZoWG4YYdNr_2q8qkuw-9" value="路由中心&lt;br&gt;广州" style="shape=cylinder3;whiteSpace=wrap;html=1;boundedLbl=1;backgroundOutline=1;size=15;fillColor=none;" vertex="1" parent="1">
          <mxGeometry x="840" y="260" width="90" height="80" as="geometry" />
        </mxCell>
        <mxCell id="pqZoWG4YYdNr_2q8qkuw-10" value="formal" style="rounded=1;whiteSpace=wrap;html=1;fillColor=none;" vertex="1" parent="1">
          <mxGeometry x="50" y="390" width="100" height="150" as="geometry" />
        </mxCell>
        <mxCell id="pqZoWG4YYdNr_2q8qkuw-11" value="vip" style="rounded=1;whiteSpace=wrap;html=1;fillColor=none;" vertex="1" parent="1">
          <mxGeometry x="195" y="390" width="100" height="150" as="geometry" />
        </mxCell>
        <mxCell id="pqZoWG4YYdNr_2q8qkuw-12" value="qw" style="rounded=1;whiteSpace=wrap;html=1;fillColor=none;" vertex="1" parent="1">
          <mxGeometry x="345" y="390" width="95" height="150" as="geometry" />
        </mxCell>
        <mxCell id="pqZoWG4YYdNr_2q8qkuw-13" value="import" style="rounded=1;whiteSpace=wrap;html=1;fillColor=none;" vertex="1" parent="1">
          <mxGeometry x="487.5" y="390" width="95" height="150" as="geometry" />
        </mxCell>
        <mxCell id="pqZoWG4YYdNr_2q8qkuw-14" value="meetinginfo广州" style="shape=cylinder3;whiteSpace=wrap;html=1;boundedLbl=1;backgroundOutline=1;size=15;fillColor=none;" vertex="1" parent="1">
          <mxGeometry x="167.5" y="750" width="90" height="70" as="geometry" />
        </mxCell>
        <mxCell id="pqZoWG4YYdNr_2q8qkuw-15" value="memberinfo广州" style="shape=cylinder3;whiteSpace=wrap;html=1;boundedLbl=1;backgroundOutline=1;size=15;fillColor=none;" vertex="1" parent="1">
          <mxGeometry x="347.5" y="750" width="90" height="70" as="geometry" />
        </mxCell>
        <mxCell id="pqZoWG4YYdNr_2q8qkuw-16" value="memberlist广州" style="shape=cylinder3;whiteSpace=wrap;html=1;boundedLbl=1;backgroundOutline=1;size=15;fillColor=none;" vertex="1" parent="1">
          <mxGeometry x="527.5" y="750" width="90" height="70" as="geometry" />
        </mxCell>
        <mxCell id="pqZoWG4YYdNr_2q8qkuw-18" value="配置中心" style="shape=cylinder3;whiteSpace=wrap;html=1;boundedLbl=1;backgroundOutline=1;size=15;fillColor=none;" vertex="1" parent="1">
          <mxGeometry x="840" y="440" width="90" height="80" as="geometry" />
        </mxCell>
        <mxCell id="pqZoWG4YYdNr_2q8qkuw-20" value="meetinginfo广州" style="shape=cylinder3;whiteSpace=wrap;html=1;boundedLbl=1;backgroundOutline=1;size=15;fillColor=none;" vertex="1" parent="1">
          <mxGeometry x="-50" y="290" width="90" height="70" as="geometry" />
        </mxCell>
        <mxCell id="pqZoWG4YYdNr_2q8qkuw-25" value="" style="curved=1;endArrow=classic;html=1;rounded=0;exitX=0;exitY=0.5;exitDx=0;exitDy=0;entryX=0.622;entryY=-0.014;entryDx=0;entryDy=0;entryPerimeter=0;" edge="1" parent="1" source="pqZoWG4YYdNr_2q8qkuw-5" target="pqZoWG4YYdNr_2q8qkuw-20">
          <mxGeometry width="50" height="50" relative="1" as="geometry">
            <mxPoint x="490" y="490" as="sourcePoint" />
            <mxPoint x="540" y="440" as="targetPoint" />
            <Array as="points">
              <mxPoint x="100" y="250" />
              <mxPoint x="30" y="270" />
            </Array>
          </mxGeometry>
        </mxCell>
        <mxCell id="pqZoWG4YYdNr_2q8qkuw-26" value="cache_read" style="rounded=0;whiteSpace=wrap;html=1;fillColor=none;" vertex="1" parent="1">
          <mxGeometry x="172.5" y="660" width="80" height="40" as="geometry" />
        </mxCell>
        <mxCell id="pqZoWG4YYdNr_2q8qkuw-27" value="meet_query" style="rounded=0;whiteSpace=wrap;html=1;fillColor=none;" vertex="1" parent="1">
          <mxGeometry x="352.5" y="660" width="80" height="40" as="geometry" />
        </mxCell>
        <mxCell id="pqZoWG4YYdNr_2q8qkuw-28" value="平台化接口" style="rounded=0;whiteSpace=wrap;html=1;fillColor=none;" vertex="1" parent="1">
          <mxGeometry x="532.5" y="660" width="80" height="40" as="geometry" />
        </mxCell>
        <mxCell id="pqZoWG4YYdNr_2q8qkuw-29" value="路由中心" style="shape=cylinder3;whiteSpace=wrap;html=1;boundedLbl=1;backgroundOutline=1;size=15;fillColor=none;" vertex="1" parent="1">
          <mxGeometry x="840" y="630" width="90" height="80" as="geometry" />
        </mxCell>
        <mxCell id="pqZoWG4YYdNr_2q8qkuw-30" value="webinar" style="rounded=1;whiteSpace=wrap;html=1;fillColor=none;" vertex="1" parent="1">
          <mxGeometry x="640" y="390" width="95" height="150" as="geometry" />
        </mxCell>
        <mxCell id="pqZoWG4YYdNr_2q8qkuw-31" value="淘汰和历史会议" style="rounded=1;whiteSpace=wrap;html=1;fillColor=none;dashed=1;dashPattern=8 8;" vertex="1" parent="1">
          <mxGeometry x="980" y="270" width="90" height="60" as="geometry" />
        </mxCell>
        <mxCell id="pqZoWG4YYdNr_2q8qkuw-32" value="&lt;font style=&quot;font-size: 24px;&quot;&gt;会控核心存储隔离&lt;/font&gt;" style="rounded=1;whiteSpace=wrap;html=1;fillColor=none;dashed=1;dashPattern=8 8;strokeColor=none;" vertex="1" parent="1">
          <mxGeometry x="-210" y="10" width="200" height="60" as="geometry" />
        </mxCell>
      </root>
    </mxGraphModel>
  </diagram>
</mxfile>
